<svg width="30" height="30" viewBox="0 0 6 6" fill="none" xmlns="http://www.w3.org/2000/svg">
<path d="M3 0.5C2.46957 0.5 1.96086 0.710714 1.58579 1.08579C1.21071 1.46086 1 1.96957 1 2.5C1 3.85 2.7625 5.375 2.8375 5.44C2.88278 5.47873 2.94041 5.50002 3 5.50002C3.05959 5.50002 3.11722 5.47873 3.1625 5.44C3.25 5.375 5 3.85 5 2.5C5 1.96957 4.78929 1.46086 4.41421 1.08579C4.03914 0.710714 3.53043 0.5 3 0.5ZM3 4.9125C2.4675 4.4125 1.5 3.335 1.5 2.5C1.5 2.10218 1.65804 1.72064 1.93934 1.43934C2.22064 1.15804 2.60218 1 3 1C3.39782 1 3.77936 1.15804 4.06066 1.43934C4.34196 1.72064 4.5 2.10218 4.5 2.5C4.5 3.335 3.5325 4.415 3 4.9125ZM3 1.5C2.80222 1.5 2.60888 1.55865 2.44443 1.66853C2.27998 1.77841 2.15181 1.93459 2.07612 2.11732C2.00043 2.30004 1.98063 2.50111 2.01921 2.69509C2.0578 2.88907 2.15304 3.06725 2.29289 3.20711C2.43275 3.34696 2.61093 3.4422 2.80491 3.48079C2.99889 3.51937 3.19996 3.49957 3.38268 3.42388C3.56541 3.34819 3.72159 3.22002 3.83147 3.05557C3.94135 2.89112 4 2.69778 4 2.5C4 2.23478 3.89464 1.98043 3.70711 1.79289C3.51957 1.60536 3.26522 1.5 3 1.5ZM3 3C2.90111 3 2.80444 2.97068 2.72221 2.91574C2.63999 2.86079 2.5759 2.78271 2.53806 2.69134C2.50022 2.59998 2.49031 2.49945 2.50961 2.40246C2.5289 2.30546 2.57652 2.21637 2.64645 2.14645C2.71637 2.07652 2.80546 2.0289 2.90245 2.00961C2.99945 1.99031 3.09998 2.00022 3.19134 2.03806C3.2827 2.0759 3.36079 2.13999 3.41573 2.22222C3.47068 2.30444 3.5 2.40111 3.5 2.5C3.5 2.63261 3.44732 2.75979 3.35355 2.85355C3.25978 2.94732 3.13261 3 3 3Z" fill="#50555C"/>
</svg>
